<svg version="1.1" xmlns="http://www.w3.org/2000/svg" viewBox="0 0 1008.0833320617676 96.78506030710884" width="2016.1666641235352" height="193.57012061421767">
  <!-- svg-source:excalidraw -->
  
  <defs>
    <style class="style-fonts">
      @font-face {
        font-family: "Virgil";
        src: url("https://excalidraw.com/Virgil.woff2");
      }
      @font-face {
        font-family: "Cascadia";
        src: url("https://excalidraw.com/Cascadia.woff2");
      }
      @font-face {
        font-family: "Assistant";
        src: url("https://excalidraw.com/Assistant-Regular.woff2");
      }
    </style>
    
  </defs>
  <rect x="0" y="0" width="1008.0833320617676" height="96.78506030710884" fill="#ffffff"></rect><g transform="translate(965.4833335876465 16.5) rotate(0 16.299999237060547 12.5)"><text x="0" y="17.52" font-family="Virgil, Segoe UI Emoji" font-size="20px" fill="#1e1e1e" text-anchor="start" style="white-space: pre;" direction="ltr" dominant-baseline="alphabetic">now</text></g><g stroke-linecap="round"><g transform="translate(982.4833335876465 44.160254037844396) rotate(0 0 21.169872981077816)"><path d="M-0.02 0.11 C-0.15 7.16, -0.39 35, -0.47 42.07 M-0.7 -0.3 C-0.68 6.84, 0.31 35.65, 0.53 42.62" stroke="#1e1e1e" stroke-width="2" fill="none"></path></g></g><mask></mask><g stroke-linecap="round" transform="translate(532.4833335876465 44.5) rotate(0 221 18.5)"><path d="M9.25 0 C124.74 -1.18, 241.61 1.96, 432.75 0 C439.2 2.91, 444.92 4.42, 442 9.25 C441.78 10.6, 442.58 19.42, 442 27.75 C442.95 34.5, 442.13 40.3, 432.75 37 C309.02 34.11, 183.79 35.58, 9.25 37 C4.96 38.11, -2.09 37, 0 27.75 C0.61 24.5, -3.38 18.65, 0 9.25 C-0.45 3.75, 2.33 1.33, 9.25 0" stroke="none" stroke-width="0" fill="#b2f2bb"></path><path d="M9.25 0 C165.13 -1.41, 318.7 -1.2, 432.75 0 M9.25 0 C135.31 1.66, 261.78 1.7, 432.75 0 M432.75 0 C437.67 0.6, 443.29 2.15, 442 9.25 M432.75 0 C438.92 1.91, 442.87 1.26, 442 9.25 M442 9.25 C441.25 12.57, 440.34 17.17, 442 27.75 M442 9.25 C441.08 15.16, 441.51 19.83, 442 27.75 M442 27.75 C441.48 34.35, 439.83 38.33, 432.75 37 M442 27.75 C442.01 36.05, 440.59 35.67, 432.75 37 M432.75 37 C287.5 38.5, 141.26 40.12, 9.25 37 M432.75 37 C311.95 36.79, 189.75 36.64, 9.25 37 M9.25 37 C3.25 36.42, 0.73 32.21, 0 27.75 M9.25 37 C3.63 37.96, -1.92 31.86, 0 27.75 M0 27.75 C-0.31 20.42, -1.89 15.51, 0 9.25 M0 27.75 C0.42 21.25, 0.51 14.33, 0 9.25 M0 9.25 C-0.4 3.85, 1.86 0.77, 9.25 0 M0 9.25 C-1.73 0.98, 4.63 0.05, 9.25 0" stroke="#1e1e1e" stroke-width="2" fill="none"></path></g><g transform="translate(687.4916648864746 50.5) rotate(0 65.99166870117188 12.5)"><text x="65.99166870117188" y="17.52" font-family="Virgil, Segoe UI Emoji" font-size="20px" fill="#1e1e1e" text-anchor="middle" style="white-space: pre;" direction="ltr" dominant-baseline="alphabetic">7 days period</text></g><g transform="translate(477.18333435058594 13) rotate(0 41.483333587646484 12.5)"><text x="0" y="17.52" font-family="Virgil, Segoe UI Emoji" font-size="20px" fill="#1e1e1e" text-anchor="start" style="white-space: pre;" direction="ltr" dominant-baseline="alphabetic">now - 7d</text></g><g stroke-linecap="round"><g transform="translate(520.5684446768694 40.3400149054678) rotate(0 0 21.169872981077816)"><path d="M0.28 -0.55 C0.3 6.43, 0.3 34.94, 0.21 42.04 M-0.24 0.36 C-0.28 7.39, -0.03 35.57, -0.12 42.58" stroke="#1e1e1e" stroke-width="2" fill="none"></path></g></g><mask></mask><g stroke-linecap="round" transform="translate(68.48333358764648 44) rotate(0 221 18.5)"><path d="M9.25 0 C155.51 1.59, 299.03 4.94, 432.75 0 C441.82 -1.47, 443.18 3.46, 442 9.25 C442.5 12.22, 443.75 16.9, 442 27.75 C443.36 30.69, 436.49 35.75, 432.75 37 C273.15 36.38, 114.83 39.33, 9.25 37 C5.37 36.78, -1.83 34.05, 0 27.75 C-2.4 23.91, -2.78 14.33, 0 9.25 C-2.38 -0.05, 0.9 0.93, 9.25 0" stroke="none" stroke-width="0" fill="#a5d8ff"></path><path d="M9.25 0 C161.24 0.22, 312.56 0.13, 432.75 0 M9.25 0 C136.3 0.71, 262.85 0.29, 432.75 0 M432.75 0 C437.22 -1.63, 441.18 4.44, 442 9.25 M432.75 0 C440.23 2.23, 440.73 1.15, 442 9.25 M442 9.25 C441.12 14.99, 441.81 24.02, 442 27.75 M442 9.25 C441.06 13.57, 441.32 19.8, 442 27.75 M442 27.75 C441.38 33.27, 439.46 37.11, 432.75 37 M442 27.75 C443.53 32.33, 437.11 36.61, 432.75 37 M432.75 37 C326.57 36.96, 218.48 36.94, 9.25 37 M432.75 37 C287.7 35.62, 143.18 36.01, 9.25 37 M9.25 37 C1.33 37.11, 0.54 34.75, 0 27.75 M9.25 37 C0.86 36.88, -1.23 31.9, 0 27.75 M0 27.75 C1.29 21.26, 0.93 17.83, 0 9.25 M0 27.75 C0.65 22.75, -0.85 16.82, 0 9.25 M0 9.25 C0.64 2.4, 4.91 -0.91, 9.25 0 M0 9.25 C0.87 4.73, 3.53 -1.12, 9.25 0" stroke="#1e1e1e" stroke-width="2" fill="none"></path></g><g transform="translate(223.4916648864746 50) rotate(0 65.99166870117188 12.5)"><text x="65.99166870117188" y="17.52" font-family="Virgil, Segoe UI Emoji" font-size="20px" fill="#1e1e1e" text-anchor="middle" style="white-space: pre;" direction="ltr" dominant-baseline="alphabetic">7 days period</text></g><g transform="translate(10 10) rotate(0 45.20833206176758 12.5)"><text x="0" y="17.52" font-family="Virgil, Segoe UI Emoji" font-size="20px" fill="#1e1e1e" text-anchor="start" style="white-space: pre;" direction="ltr" dominant-baseline="alphabetic">now - 14d</text></g><g stroke-linecap="round"><g transform="translate(58.45890267194284 39.48253296025487) rotate(0 0 21.169872981077816)"><path d="M-0.01 -0.4 C-0.12 6.7, -0.47 35.27, -0.46 42.33 M-0.67 0.58 C-0.64 7.8, 0.46 36.07, 0.54 43.02" stroke="#1e1e1e" stroke-width="2" fill="none"></path></g></g><mask></mask></svg>