<?xml version="1.0" standalone="no"?>
<!DOCTYPE svg PUBLIC "-//W3C//DTD SVG 20010904//EN"
 "http://www.w3.org/TR/2001/REC-SVG-20010904/DTD/svg10.dtd">
<svg version="1.0" xmlns="http://www.w3.org/2000/svg"
 width="700.000000pt" height="700.000000pt" viewBox="0 0 700.000000 700.000000"
 preserveAspectRatio="xMidYMid meet">
<metadata>
Created by potrace 1.14, written by Peter Selinger 2001-2017
</metadata>
<g transform="translate(0.000000,700.000000) scale(0.100000,-0.100000)"
fill="#000000" stroke="none">
<path d="M0 4970 c0 -1117 3 -2030 6 -2030 27 0 2251 604 2256 613 5 7 285
490 624 1075 339 584 619 1062 623 1062 3 -1 565 -974 1248 -2163 l1242 -2162
-202 -2 c-111 -2 -1236 1 -2499 5 l-2297 7 525 905 c288 498 520 906 516 908
-5 1 -343 -87 -753 -197 -409 -110 -867 -232 -1016 -272 l-273 -73 0 -1323 0
-1323 3500 0 3500 0 0 3500 0 3500 -3500 0 -3500 0 0 -2030z"/>
<path d="M3035 4448 c-258 -446 -478 -825 -487 -843 l-18 -33 148 39 c81 22
363 96 627 165 l480 127 145 -12 c80 -6 196 -14 259 -18 l115 -6 -44 79 c-58
106 -741 1297 -749 1306 -3 4 -217 -358 -476 -804z"/>
<path d="M1858 2417 l-477 -822 1552 -7 c854 -4 1807 -7 2120 -5 l567 2 -333
580 c-279 484 -572 989 -605 1043 -7 11 -42 11 -193 2 -376 -22 -708 -60 -936
-107 -78 -16 -82 -18 -77 -40 4 -15 2 -23 -7 -23 -18 0 -1047 180 -1114 195
-18 4 -84 -106 -497 -818z"/>
</g>
</svg>
