<?xml version="1.0" standalone="no"?>
<!DOCTYPE svg PUBLIC "-//W3C//DTD SVG 20010904//EN"
 "http://www.w3.org/TR/2001/REC-SVG-20010904/DTD/svg10.dtd">
<svg version="1.0" xmlns="http://www.w3.org/2000/svg"
 width="1024.000000pt" height="1024.000000pt" viewBox="0 0 1024.000000 1024.000000"
 preserveAspectRatio="xMidYMid meet">
<metadata>
Created by potrace 1.14, written by Peter Selinger 2001-2017
</metadata>
<g transform="translate(0.000000,1024.000000) scale(0.100000,-0.100000)"
fill="#000000" stroke="none">
<path d="M0 7290 c0 -1622 2 -2950 3 -2950 2 0 726 193 1608 430 1101 295
1608 435 1616 446 7 9 181 307 387 663 206 355 629 1085 940 1621 311 536 567
980 570 985 2 6 6 8 9 5 3 -3 427 -738 942 -1635 516 -896 1134 -1972 1374
-2390 1136 -1974 1451 -2524 1457 -2538 5 -14 -312 -15 -3063 -11 -3180 4
-4502 9 -4510 17 -2 3 78 146 178 318 283 489 926 1598 1336 2307 16 26 20 40
11 37 -9 -3 -2344 -629 -2820 -756 l-38 -10 0 -1914 0 -1915 5120 0 5120 0 0
5120 0 5120 -5120 0 -5120 0 0 -2950z"/>
<path d="M4826 7012 c-279 -481 -971 -1676 -984 -1696 -3 -5 -1 -7 4 -4 11 7
980 313 1399 443 171 52 319 98 329 101 15 5 18 3 13 -10 -5 -13 -3 -15 10 -7
11 6 26 5 42 -1 15 -6 53 -12 86 -14 127 -7 205 -13 212 -17 5 -2 40 -3 78 -2
39 0 75 -3 82 -7 34 -26 11 28 -90 209 -181 323 -872 1523 -877 1523 -3 0
-140 -233 -304 -518z"/>
<path d="M3258 4308 c-119 -205 -386 -665 -593 -1023 -502 -866 -508 -876
-504 -879 6 -6 5919 -12 5919 -6 0 5 -330 580 -1056 1839 -115 199 -220 375
-234 389 -14 14 -19 22 -11 17 10 -5 12 -4 7 4 -4 6 -12 9 -17 5 -6 -3 -65 -8
-132 -9 -140 -5 -290 -14 -327 -20 -14 -2 -81 -9 -150 -15 -147 -12 -413 -46
-505 -64 -11 -2 -60 -9 -110 -16 -49 -6 -101 -16 -115 -20 -14 -4 -52 -13 -85
-20 -147 -28 -253 -60 -259 -77 -3 -7 -1 -13 4 -13 6 0 10 -4 10 -10 0 -5 -15
-7 -32 -5 -26 4 -29 3 -13 -4 13 -6 15 -10 5 -10 -11 -1 -11 -4 -2 -13 9 -9
15 -9 24 0 7 7 19 12 28 11 10 0 9 -3 -5 -9 -17 -7 -17 -9 -2 -9 14 -1 27 -21
13 -21 -12 0 -1599 337 -1627 345 -11 4 -69 -88 -231 -367z"/>
</g>
</svg>
