<?xml version="1.0" standalone="no"?>
<!DOCTYPE svg PUBLIC "-//W3C//DTD SVG 20010904//EN"
 "http://www.w3.org/TR/2001/REC-SVG-20010904/DTD/svg10.dtd">
<svg version="1.0" xmlns="http://www.w3.org/2000/svg"
 width="700.000000pt" height="700.000000pt" viewBox="0 0 700.000000 700.000000"
 preserveAspectRatio="xMidYMid meet">
<metadata>
Created by potrace 1.14, written by Peter Selinger 2001-2017
</metadata>
<g transform="translate(0.000000,700.000000) scale(0.100000,-0.100000)"
fill="#000000" stroke="none">
<path d="M0 4896 l0 -2105 48 14 c26 7 274 74 552 149 1231 330 1403 376 1405
378 1 2 339 585 751 1295 566 978 752 1290 760 1280 14 -16 2674 -4644 2674
-4653 0 -8 -5370 2 -5377 10 -4 3 880 1539 935 1624 12 18 12 21 1 17 -14 -4
-1668 -447 -1721 -460 l-28 -7 0 -1219 0 -1219 3500 0 3500 0 0 3500 0 3500
-3500 0 -3500 0 0 -2104z"/>
<path d="M3071 4284 c-238 -410 -430 -748 -428 -750 2 -2 19 2 38 10 26 10
1022 378 1341 494 l47 18 -275 479 c-152 264 -279 483 -283 488 -4 4 -202
-329 -440 -739z"/>
<path d="M1956 2361 c-207 -357 -376 -652 -376 -655 0 -3 864 -6 1920 -6 1056
0 1920 1 1920 3 0 2 -80 142 -177 312 l-178 309 -1345 338 c-740 185 -1355
339 -1366 342 -19 5 -61 -63 -398 -643z"/>
</g>
</svg>
